<mxfile host="app.diagrams.net" modified="2022-12-03T11:25:33.541Z" agent="5.0 (Windows NT 10.0; Win64; x64) AppleWebKit/537.36 (KHTML, like Gecko) Chrome/106.0.0.0 YaBrowser/22.11.0.2419 Yowser/2.5 Safari/537.36" version="20.6.0" etag="ATsR6VzqH2LS_UWEPmFY" type="github">
  <diagram id="iEyO8yNv-tosoVfPC8fc" name="Страница 1">
    <mxGraphModel dx="1374" dy="765" grid="1" gridSize="10" guides="1" tooltips="1" connect="1" arrows="1" fold="1" page="1" pageScale="1" pageWidth="827" pageHeight="1169" math="0" shadow="0">
      <root>
        <mxCell id="0" />
        <mxCell id="1" parent="0" />
        <mxCell id="AEqgUKsmlyVcp4_ZuOzR-1" value="" style="rounded=1;whiteSpace=wrap;html=1;arcSize=14;" vertex="1" parent="1">
          <mxGeometry x="290" y="310" width="150" height="90" as="geometry" />
        </mxCell>
      </root>
    </mxGraphModel>
  </diagram>
</mxfile>
